<svg width="161" height="59" viewBox="0 0 161 59" fill="none" xmlns="http://www.w3.org/2000/svg">
<path fill-rule="evenodd" clip-rule="evenodd" d="M32.6626 27.3858C35.1117 27.3858 36.8706 26.8681 37.9393 25.8328C39.0081 24.7975 39.5869 23.0775 39.676 20.6729C39.7651 18.491 39.8096 16.1699 39.8096 13.7096C39.8096 11.2493 39.7651 8.90595 39.676 6.67946C39.5869 4.29712 39.0081 2.58829 37.9393 1.55298C36.8706 0.517658 35.1117 0 32.6626 0C30.2134 0 28.4378 0.517658 27.3357 1.55298C26.2336 2.58829 25.6603 4.29712 25.6157 6.67946C25.5712 8.86142 25.5489 11.1937 25.5489 13.6762L25.5493 14.2059C25.5522 16.4911 25.5744 18.6468 25.6157 20.6729C25.6603 23.0775 26.2336 24.7975 27.3357 25.8328C28.4378 26.8681 30.2134 27.3858 32.6626 27.3858ZM5.67754 27.0518V18.8361L4.74242 4.74242H5.61075L7.04683 19.1701L9.08407 27.0518H14.461L16.5317 19.1701L17.9344 4.74242H18.8361L17.8676 18.8361V27.0518H22.8772V0.333973H14.8618L12.6242 10.4534L12.2234 22.6434H11.3551L10.9209 10.4534L8.7167 0.333973H0.667946V27.0518H5.67754ZM30.6253 21.6081C30.6699 22.7436 31.3489 23.3113 32.6626 23.3113C33.9539 23.3113 34.6219 22.7436 34.6664 21.6081C34.7109 20.4726 34.7499 19.2257 34.7833 17.8676C34.8167 16.5094 34.8334 15.1123 34.8334 13.6762C34.8334 12.2401 34.8167 10.843 34.7833 9.48484C34.7499 8.12668 34.7109 6.87985 34.6664 5.74434C34.6219 4.63109 33.9539 4.07447 32.6626 4.07447C31.3489 4.07447 30.6699 4.63109 30.6253 5.74434C30.5808 6.87985 30.5474 8.12668 30.5251 9.48484C30.5029 10.843 30.4917 12.2401 30.4917 13.6762C30.4917 15.1123 30.5029 16.5094 30.5251 17.8676C30.5474 19.2257 30.5808 20.4726 30.6253 21.6081ZM49.261 27.0518C51.777 27.0518 53.5916 26.5175 54.7048 25.4488C55.818 24.38 56.3969 22.6211 56.4415 20.172C56.486 18.6134 56.5138 17.1384 56.525 15.7468C56.5361 14.3553 56.5361 12.9637 56.525 11.5722C56.5138 10.1806 56.486 8.7167 56.4415 7.18042C56.3969 4.73129 55.818 2.97793 54.7048 1.92035C53.5916 0.862764 51.777 0.333973 49.261 0.333973H42.4814V27.0518H49.261ZM47.491 22.6434H49.261C50.6637 22.6434 51.3873 22.02 51.4319 20.7731C51.5654 16.0307 51.5654 11.2994 51.4319 6.57927C51.3873 5.3547 50.6637 4.74242 49.261 4.74242H47.491V22.6434ZM70.7355 27.0518V22.6434H64.1896V15.6633H70.4015V11.2549H64.1896V4.74242H70.7355V0.333973H59.18V27.0518H70.7355ZM77.7489 18.0345V27.0518H72.7393V0.333973H79.185C81.6787 0.333973 83.4766 0.840499 84.5787 1.85355C85.6808 2.8666 86.2764 4.5309 86.3655 6.84645C86.3877 7.46987 86.4044 8.01536 86.4156 8.48292C86.4267 8.95048 86.4267 9.41804 86.4156 9.8856C86.4044 10.3532 86.3877 10.8987 86.3655 11.5221C86.3209 12.9693 86.076 14.1549 85.6307 15.0789C85.1854 16.0029 84.5063 16.7098 83.5935 17.1996L86.7328 27.0518H81.4227L78.8845 18.0345H77.7489ZM79.185 13.6261H77.7489V4.74242H79.185C80.5655 4.74242 81.2891 5.3547 81.3559 6.57927C81.4672 8.31593 81.4672 10.0526 81.3559 11.7893C81.2891 13.0138 80.5655 13.6261 79.185 13.6261ZM93.1451 16.7988L93.5793 27.0518H88.7367V0.333973H95.9839L97.9877 8.85029L99.8246 22.6434H100.693L99.7578 11.7893L99.357 0.333973H104.2V27.0518H96.585L94.5812 18.3017L93.2119 4.70902H92.2768L93.1451 16.7988ZM5.14319 57.666L5.71094 52.0887H9.58503L10.1528 57.666H15.296L11.5889 30.9482H3.7071L0 57.666H5.14319ZM6.1785 47.6802H9.11747L8.51632 41.7689L8.11555 35.3566H7.18042L6.77965 41.7689L6.1785 47.6802ZM22.3094 57.666V48.6488H23.4449L25.9831 57.666H31.2933L28.1539 47.8138C29.0668 47.324 29.7459 46.6171 30.1912 45.6931C30.6365 44.7691 30.8814 43.5835 30.9259 42.1363C30.9482 41.5129 30.9649 40.9674 30.976 40.4998C30.9871 40.0322 30.9871 39.5647 30.976 39.0971C30.9649 38.6296 30.9482 38.0841 30.9259 37.4607C30.8369 35.1451 30.2413 33.4808 29.1392 32.4678C28.037 31.4547 26.2392 30.9482 23.7455 30.9482H17.2998V57.666H22.3094ZM22.3094 44.2403H23.7455C25.1259 44.2403 25.8495 43.628 25.9163 42.4035C26.0276 40.6668 26.0276 38.9301 25.9163 37.1935C25.8495 35.9689 25.1259 35.3566 23.7455 35.3566H22.3094V44.2403ZM41.947 57.666V35.3566H46.2219V30.9482H32.6292V35.3566H36.9374V57.666H41.947ZM67.9301 56.447C66.8392 57.4823 65.1025 58 62.7202 58C61.0503 58 59.7088 57.7718 58.6958 57.3154C57.6827 56.8589 56.9424 56.1409 56.4749 55.1612C56.0073 54.1816 55.7401 52.8902 55.6733 51.2871C55.6511 50.352 55.6288 49.2889 55.6065 48.0977C55.5843 46.9065 55.5731 45.6708 55.5731 44.3906C55.5731 43.1104 55.5843 41.8802 55.6065 40.7002C55.6288 39.5202 55.6511 38.4848 55.6733 37.5942C55.7401 35.9021 56.0129 34.544 56.4916 33.5198C56.9702 32.4956 57.7161 31.7553 58.7292 31.2988C59.7422 30.8424 61.0726 30.6142 62.7202 30.6142C65.058 30.6142 66.7612 31.1319 67.8299 32.1672C68.8987 33.2025 69.5109 34.9113 69.6668 37.2937C69.7113 37.8058 69.7336 38.418 69.7336 39.1305C69.7336 39.843 69.7113 40.4553 69.6668 40.9674H64.6572C64.7017 40.344 64.724 39.5758 64.724 38.663C64.724 37.7501 64.7017 36.982 64.6572 36.3585C64.5904 35.2453 63.9447 34.6887 62.7202 34.6887C61.4288 34.6887 60.7497 35.2453 60.6829 36.3585C60.5939 37.9171 60.5326 39.6315 60.4992 41.5017C60.4658 43.372 60.4658 45.2367 60.4992 47.0958C60.5326 48.9549 60.5939 50.6637 60.6829 52.2223C60.7497 53.3578 61.4288 53.9255 62.7202 53.9255C63.3658 53.9255 63.8779 53.7808 64.2564 53.4914C64.6349 53.2019 64.8465 52.7789 64.891 52.2223C64.9132 51.9551 64.9299 51.6155 64.9411 51.2036C64.9522 50.7917 64.9522 50.3743 64.9411 49.9512C64.9299 49.5282 64.9132 49.1942 64.891 48.9493H63.0541V44.6077H69.767C69.8115 45.6319 69.8282 46.7451 69.8171 47.9474C69.8059 49.1497 69.7781 50.263 69.7336 51.2871C69.6223 53.6917 69.0211 55.4117 67.9301 56.447ZM76.3129 57.666L76.8806 52.0887H80.7547L81.3225 57.666H86.4656L82.7585 30.9482H74.8768L71.1697 57.666H76.3129ZM77.3482 47.6802H80.2871L79.686 41.7689L79.2852 35.3566H78.3501L77.9493 41.7689L77.3482 47.6802ZM100.058 57.666V53.2576H93.4791V30.9482H88.4695V57.666H100.058ZM113.651 53.2576V57.666H102.062V30.9482H107.072V53.2576H113.651ZM127.21 57.666V53.2576H120.664V46.2775H126.876V41.8691H120.664V35.3566H127.21V30.9482H115.655V57.666H127.21ZM134.224 48.6488V57.666H129.214V30.9482H135.66C138.154 30.9482 139.951 31.4547 141.054 32.4678C142.156 33.4808 142.751 35.1451 142.84 37.4607C142.863 38.0841 142.879 38.6296 142.89 39.0971C142.902 39.5647 142.902 40.0322 142.89 40.4998C142.879 40.9674 142.863 41.5129 142.84 42.1363C142.796 43.5835 142.551 44.7691 142.106 45.6931C141.66 46.6171 140.981 47.324 140.068 47.8138L143.208 57.666H137.898L135.359 48.6488H134.224ZM135.66 44.2403H134.224V35.3566H135.66C137.04 35.3566 137.764 35.9689 137.831 37.1935C137.942 38.9301 137.942 40.6668 137.831 42.4035C137.764 43.628 137.04 44.2403 135.66 44.2403ZM154.563 51.2871V57.666H149.553V51.2871L149.186 49.7843L144.544 30.9482H149.653L151.089 37.4273L151.59 45.2756H152.526L153.026 37.4273L154.463 30.9482H159.572L154.93 49.7509L154.563 51.2871Z" fill="#F5F5F5"/>
<path d="M39.676 20.6729L39.1764 20.6525L39.1764 20.6544L39.676 20.6729ZM39.676 6.67946L39.1764 6.69814L39.1764 6.69945L39.676 6.67946ZM37.9393 1.55298L37.5914 1.9121V1.9121L37.9393 1.55298ZM27.3357 1.55298L27.678 1.9174V1.9174L27.3357 1.55298ZM25.6157 6.67946L26.1156 6.68966L26.1157 6.68881L25.6157 6.67946ZM25.5489 13.6762H25.0489V13.6765L25.5489 13.6762ZM25.5493 14.2059L25.0493 14.2062V14.2065L25.5493 14.2059ZM25.6157 20.6729L26.1157 20.6637L26.1156 20.6627L25.6157 20.6729ZM5.67754 18.8361H6.17754V18.8195L6.17645 18.803L5.67754 18.8361ZM5.67754 27.0518V27.5518H6.17754V27.0518H5.67754ZM4.74242 4.74242V4.24242H4.20814L4.24352 4.77552L4.74242 4.74242ZM5.61075 4.74242L6.10829 4.69289L6.06345 4.24242H5.61075V4.74242ZM7.04683 19.1701L6.54929 19.2196L6.55311 19.2579L6.56274 19.2952L7.04683 19.1701ZM9.08407 27.0518L8.59998 27.1769L8.69687 27.5518H9.08407V27.0518ZM14.461 27.0518V27.5518H14.8466L14.9446 27.1789L14.461 27.0518ZM16.5317 19.1701L17.0153 19.2971L17.0254 19.2583L17.0293 19.2184L16.5317 19.1701ZM17.9344 4.74242V4.24242H17.4806L17.4367 4.69404L17.9344 4.74242ZM18.8361 4.74242L19.3349 4.7767L19.3716 4.24242H18.8361V4.74242ZM17.8676 18.8361L17.3687 18.8018L17.3676 18.8189V18.8361H17.8676ZM17.8676 27.0518H17.3676V27.5518H17.8676V27.0518ZM22.8772 27.0518V27.5518H23.3772V27.0518H22.8772ZM22.8772 0.333973H23.3772V-0.166027H22.8772V0.333973ZM14.8618 0.333973V-0.166027H14.4603L14.3736 0.22602L14.8618 0.333973ZM12.6242 10.4534L12.136 10.3454L12.126 10.3906L12.1245 10.4369L12.6242 10.4534ZM12.2234 22.6434V23.1434H12.7072L12.7231 22.6598L12.2234 22.6434ZM11.3551 22.6434L10.8554 22.6612L10.8726 23.1434H11.3551V22.6434ZM10.9209 10.4534L11.4206 10.4356L11.419 10.3908L11.4095 10.3469L10.9209 10.4534ZM8.7167 0.333973L9.20524 0.227558L9.11951 -0.166027H8.7167V0.333973ZM0.667946 0.333973V-0.166027H0.167946V0.333973H0.667946ZM0.667946 27.0518H0.167946V27.5518H0.667946V27.0518ZM30.6253 21.6081L30.1257 21.6277V21.6277L30.6253 21.6081ZM34.6664 21.6081L35.166 21.6277V21.6277L34.6664 21.6081ZM34.7833 17.8676L34.2835 17.8553V17.8553L34.7833 17.8676ZM34.6664 5.74434L35.166 5.72475L35.166 5.72435L34.6664 5.74434ZM30.6253 5.74434L30.1257 5.72435L30.1257 5.72475L30.6253 5.74434ZM30.5251 17.8676L31.0251 17.8594V17.8594L30.5251 17.8676ZM56.4415 20.172L55.9416 20.1577L55.9415 20.1629L56.4415 20.172ZM56.525 15.7468L57.0249 15.7508V15.7508L56.525 15.7468ZM56.525 11.5722L57.0249 11.5682V11.5682L56.525 11.5722ZM56.4415 7.18042L55.9415 7.18951L55.9417 7.19491L56.4415 7.18042ZM54.7048 1.92035L54.3604 2.28285V2.28285L54.7048 1.92035ZM42.4814 0.333973V-0.166027H41.9814V0.333973H42.4814ZM42.4814 27.0518H41.9814V27.5518H42.4814V27.0518ZM47.491 22.6434H46.991V23.1434H47.491V22.6434ZM51.4319 20.7731L51.9316 20.791L51.9317 20.7872L51.4319 20.7731ZM51.4319 6.57927L51.9317 6.56512L51.9315 6.5611L51.4319 6.57927ZM47.491 4.74242V4.24242H46.991V4.74242H47.491ZM70.7355 22.6434H71.2355V22.1434H70.7355V22.6434ZM70.7355 27.0518V27.5518H71.2355V27.0518H70.7355ZM64.1896 22.6434H63.6896V23.1434H64.1896V22.6434ZM64.1896 15.6633V15.1633H63.6896V15.6633H64.1896ZM70.4015 15.6633V16.1633H70.9015V15.6633H70.4015ZM70.4015 11.2549H70.9015V10.7549H70.4015V11.2549ZM64.1896 11.2549H63.6896V11.7549H64.1896V11.2549ZM64.1896 4.74242V4.24242H63.6896V4.74242H64.1896ZM70.7355 4.74242V5.24242H71.2355V4.74242H70.7355ZM70.7355 0.333973H71.2355V-0.166027H70.7355V0.333973ZM59.18 0.333973V-0.166027H58.68V0.333973H59.18ZM59.18 27.0518H58.68V27.5518H59.18V27.0518ZM77.7489 27.0518V27.5518H78.2489V27.0518H77.7489ZM77.7489 18.0345V17.5345H77.2489V18.0345H77.7489ZM72.7393 27.0518H72.2393V27.5518H72.7393V27.0518ZM72.7393 0.333973V-0.166027H72.2393V0.333973H72.7393ZM84.5787 1.85355L84.2403 2.22166V2.22166L84.5787 1.85355ZM86.3655 6.84645L86.8651 6.8286L86.8651 6.82723L86.3655 6.84645ZM86.4156 8.48292L86.9154 8.47102V8.47102L86.4156 8.48292ZM86.4156 9.8856L85.9157 9.8737V9.8737L86.4156 9.8856ZM86.3655 11.5221L85.8658 11.5042L85.8657 11.5067L86.3655 11.5221ZM85.6307 15.0789L85.1803 14.8618V14.8618L85.6307 15.0789ZM83.5935 17.1996L83.3571 16.759L82.9909 16.9555L83.1171 17.3514L83.5935 17.1996ZM86.7328 27.0518V27.5518H87.4169L87.2092 26.9L86.7328 27.0518ZM81.4227 27.0518L80.9414 27.1873L81.044 27.5518H81.4227V27.0518ZM78.8845 18.0345L79.3657 17.8991L79.2631 17.5345H78.8845V18.0345ZM77.7489 13.6261H77.2489V14.1261H77.7489V13.6261ZM77.7489 4.74242V4.24242H77.2489V4.74242H77.7489ZM81.3559 6.57927L80.8566 6.6065L80.8569 6.61125L81.3559 6.57927ZM81.3559 11.7893L80.8569 11.7573L80.8566 11.762L81.3559 11.7893ZM93.5793 27.0518V27.5518H94.1009L94.0788 27.0307L93.5793 27.0518ZM93.1451 16.7988L93.6447 16.7777L93.6444 16.7704L93.6438 16.763L93.1451 16.7988ZM88.7367 27.0518H88.2367V27.5518H88.7367V27.0518ZM88.7367 0.333973V-0.166027H88.2367V0.333973H88.7367ZM95.9839 0.333973L96.4706 0.219454L96.3799 -0.166027H95.9839V0.333973ZM97.9877 8.85029L98.4833 8.78428L98.4801 8.75981L98.4744 8.73577L97.9877 8.85029ZM99.8246 22.6434L99.3289 22.7094L99.3867 23.1434H99.8246V22.6434ZM100.693 22.6434V23.1434H101.238L101.191 22.6005L100.693 22.6434ZM99.7578 11.7893L99.2581 11.8067L99.2585 11.8195L99.2596 11.8322L99.7578 11.7893ZM99.357 0.333973V-0.166027H98.8392L98.8573 0.351455L99.357 0.333973ZM104.2 0.333973H104.7V-0.166027H104.2V0.333973ZM104.2 27.0518V27.5518H104.7V27.0518H104.2ZM96.585 27.0518L96.0976 27.1634L96.1866 27.5518H96.585V27.0518ZM94.5812 18.3017L94.0837 18.3518L94.0868 18.3829L94.0938 18.4133L94.5812 18.3017ZM93.2119 4.70902L93.7094 4.65891L93.6641 4.20902H93.2119V4.70902ZM92.2768 4.70902V4.20902H91.7396L91.7781 4.74484L92.2768 4.70902ZM5.71094 52.0887V51.5887H5.25925L5.21351 52.038L5.71094 52.0887ZM5.14319 57.666V58.166H5.59487L5.64062 57.7167L5.14319 57.666ZM9.58503 52.0887L10.0825 52.038L10.0367 51.5887H9.58503V52.0887ZM10.1528 57.666L9.65535 57.7167L9.7011 58.166H10.1528V57.666ZM15.296 57.666V58.166H15.8701L15.7912 57.5973L15.296 57.666ZM11.5889 30.9482L12.0841 30.8795L12.0243 30.4482H11.5889V30.9482ZM3.7071 30.9482V30.4482H3.27169L3.21185 30.8795L3.7071 30.9482ZM0 57.666L-0.495256 57.5973L-0.574165 58.166H0V57.666ZM9.11747 47.6802V48.1802H9.67089L9.6149 47.6296L9.11747 47.6802ZM6.1785 47.6802L5.68107 47.6296L5.62508 48.1802H6.1785V47.6802ZM8.51632 41.7689L8.01729 41.8001L8.0179 41.8098L8.01888 41.8195L8.51632 41.7689ZM8.11555 35.3566L8.61457 35.3254L8.58527 34.8566H8.11555V35.3566ZM7.18042 35.3566V34.8566H6.7107L6.6814 35.3254L7.18042 35.3566ZM6.77965 41.7689L7.27709 41.8195L7.27807 41.8098L7.27868 41.8001L6.77965 41.7689ZM22.3094 48.6488V48.1488H21.8094V48.6488H22.3094ZM22.3094 57.666V58.166H22.8094V57.666H22.3094ZM23.4449 48.6488L23.9262 48.5133L23.8236 48.1488H23.4449V48.6488ZM25.9831 57.666L25.5018 57.8015L25.6044 58.166H25.9831V57.666ZM31.2933 57.666V58.166H31.9774L31.7697 57.5142L31.2933 57.666ZM28.1539 47.8138L27.9175 47.3732L27.5514 47.5697L27.6775 47.9656L28.1539 47.8138ZM30.9259 42.1363L30.4262 42.1184L30.4261 42.1209L30.9259 42.1363ZM30.976 40.4998L31.4759 40.5117V40.5117L30.976 40.4998ZM30.976 39.0971L31.4759 39.0852V39.0852L30.976 39.0971ZM30.9259 37.4607L31.4256 37.4428L31.4255 37.4414L30.9259 37.4607ZM29.1392 32.4678L29.4775 32.0996V32.0996L29.1392 32.4678ZM17.2998 30.9482V30.4482H16.7998V30.9482H17.2998ZM17.2998 57.666H16.7998V58.166H17.2998V57.666ZM22.3094 44.2403H21.8094V44.7403H22.3094V44.2403ZM25.9163 42.4035L25.4173 42.3715L25.4171 42.3762L25.9163 42.4035ZM25.9163 37.1935L25.417 37.2207L25.4173 37.2255L25.9163 37.1935ZM22.3094 35.3566V34.8566H21.8094V35.3566H22.3094ZM41.947 35.3566V34.8566H41.447V35.3566H41.947ZM41.947 57.666V58.166H42.447V57.666H41.947ZM46.2219 35.3566V35.8566H46.7219V35.3566H46.2219ZM46.2219 30.9482H46.7219V30.4482H46.2219V30.9482ZM32.6292 30.9482V30.4482H32.1292V30.9482H32.6292ZM32.6292 35.3566H32.1292V35.8566H32.6292V35.3566ZM36.9374 35.3566H37.4374V34.8566H36.9374V35.3566ZM36.9374 57.666H36.4374V58.166H36.9374V57.666ZM67.9301 56.447L67.586 56.0843L67.5859 56.0843L67.9301 56.447ZM58.6958 57.3154L58.9012 56.8595V56.8595L58.6958 57.3154ZM56.4749 55.1612L56.0236 55.3766V55.3766L56.4749 55.1612ZM55.6733 51.2871L55.1734 51.299L55.1738 51.308L55.6733 51.2871ZM55.6733 37.5942L55.1737 37.5745L55.1735 37.5817L55.6733 37.5942ZM56.4916 33.5198L56.9445 33.7315V33.7315L56.4916 33.5198ZM58.7292 31.2988L58.9346 31.7547V31.7547L58.7292 31.2988ZM67.8299 32.1672L67.482 32.5263V32.5263L67.8299 32.1672ZM69.6668 37.2937L69.1677 37.3263L69.1687 37.337L69.6668 37.2937ZM69.6668 40.9674V41.4674H70.1252L70.1649 41.0107L69.6668 40.9674ZM64.6572 40.9674L64.1585 40.9317L64.1202 41.4674H64.6572V40.9674ZM64.6572 36.3585L64.1581 36.3885L64.1585 36.3942L64.6572 36.3585ZM60.6829 36.3585L60.1838 36.3286L60.1837 36.33L60.6829 36.3585ZM60.4992 41.5017L59.9993 41.4928V41.4928L60.4992 41.5017ZM60.4992 47.0958L59.9993 47.1048V47.1048L60.4992 47.0958ZM60.6829 52.2223L60.1837 52.2508L60.1838 52.2516L60.6829 52.2223ZM64.2564 53.4914L64.5602 53.8885V53.8885L64.2564 53.4914ZM64.891 52.2223L64.3927 52.1807L64.3926 52.1824L64.891 52.2223ZM64.9411 51.2036L64.4413 51.1901V51.1901L64.9411 51.2036ZM64.9411 49.9512L64.4412 49.9644V49.9644L64.9411 49.9512ZM64.891 48.9493L65.3889 48.9041L65.3476 48.4493H64.891V48.9493ZM63.0541 48.9493H62.5541V49.4493H63.0541V48.9493ZM63.0541 44.6077V44.1077H62.5541V44.6077H63.0541ZM69.767 44.6077L70.2665 44.586L70.2457 44.1077H69.767V44.6077ZM69.8171 47.9474L69.3171 47.9428V47.9428L69.8171 47.9474ZM69.7336 51.2871L70.2331 51.3103L70.2331 51.3089L69.7336 51.2871ZM76.8806 52.0887V51.5887H76.4289L76.3832 52.038L76.8806 52.0887ZM76.3129 57.666V58.166H76.7645L76.8103 57.7167L76.3129 57.666ZM80.7547 52.0887L81.2521 52.038L81.2064 51.5887H80.7547V52.0887ZM81.3225 57.666L80.825 57.7167L80.8708 58.166H81.3225V57.666ZM86.4656 57.666V58.166H87.0398L86.9609 57.5973L86.4656 57.666ZM82.7585 30.9482L83.2538 30.8795L83.194 30.4482H82.7585V30.9482ZM74.8768 30.9482V30.4482H74.4414L74.3815 30.8795L74.8768 30.9482ZM71.1697 57.666L70.6744 57.5973L70.5955 58.166H71.1697V57.666ZM80.2871 47.6802V48.1802H80.8406L80.7846 47.6296L80.2871 47.6802ZM77.3482 47.6802L76.8507 47.6296L76.7947 48.1802H77.3482V47.6802ZM79.686 41.7689L79.187 41.8001L79.1876 41.8098L79.1886 41.8195L79.686 41.7689ZM79.2852 35.3566L79.7842 35.3254L79.7549 34.8566H79.2852V35.3566ZM78.3501 35.3566V34.8566H77.8804L77.8511 35.3254L78.3501 35.3566ZM77.9493 41.7689L78.4468 41.8195L78.4477 41.8098L78.4483 41.8001L77.9493 41.7689ZM100.058 53.2576H100.558V52.7576H100.058V53.2576ZM100.058 57.666V58.166H100.558V57.666H100.058ZM93.4791 53.2576H92.9791V53.7576H93.4791V53.2576ZM93.4791 30.9482H93.9791V30.4482H93.4791V30.9482ZM88.4695 30.9482V30.4482H87.9695V30.9482H88.4695ZM88.4695 57.666H87.9695V58.166H88.4695V57.666ZM113.651 57.666V58.166H114.151V57.666H113.651ZM113.651 53.2576H114.151V52.7576H113.651V53.2576ZM102.062 57.666H101.562V58.166H102.062V57.666ZM102.062 30.9482V30.4482H101.562V30.9482H102.062ZM107.072 30.9482H107.572V30.4482H107.072V30.9482ZM107.072 53.2576H106.572V53.7576H107.072V53.2576ZM127.21 53.2576H127.71V52.7576H127.21V53.2576ZM127.21 57.666V58.166H127.71V57.666H127.21ZM120.664 53.2576H120.164V53.7576H120.664V53.2576ZM120.664 46.2775V45.7775H120.164V46.2775H120.664ZM126.876 46.2775V46.7775H127.376V46.2775H126.876ZM126.876 41.8691H127.376V41.3691H126.876V41.8691ZM120.664 41.8691H120.164V42.3691H120.664V41.8691ZM120.664 35.3566V34.8566H120.164V35.3566H120.664ZM127.21 35.3566V35.8566H127.71V35.3566H127.21ZM127.21 30.9482H127.71V30.4482H127.21V30.9482ZM115.655 30.9482V30.4482H115.155V30.9482H115.655ZM115.655 57.666H115.155V58.166H115.655V57.666ZM134.224 57.666V58.166H134.724V57.666H134.224ZM134.224 48.6488V48.1488H133.724V48.6488H134.224ZM129.214 57.666H128.714V58.166H129.214V57.666ZM129.214 30.9482V30.4482H128.714V30.9482H129.214ZM141.054 32.4678L141.392 32.0996V32.0996L141.054 32.4678ZM142.84 37.4607L143.34 37.4428L143.34 37.4414L142.84 37.4607ZM142.89 39.0971L142.391 39.109V39.109L142.89 39.0971ZM142.89 40.4998L142.391 40.4879V40.4879L142.89 40.4998ZM142.84 42.1363L142.341 42.1184L142.341 42.1209L142.84 42.1363ZM140.068 47.8138L139.832 47.3732L139.466 47.5697L139.592 47.9656L140.068 47.8138ZM143.208 57.666V58.166H143.892L143.684 57.5142L143.208 57.666ZM137.898 57.666L137.416 57.8015L137.519 58.166H137.898V57.666ZM135.359 48.6488L135.841 48.5133L135.738 48.1488H135.359V48.6488ZM134.224 44.2403H133.724V44.7403H134.224V44.2403ZM134.224 35.3566V34.8566H133.724V35.3566H134.224ZM137.831 37.1935L137.331 37.2207L137.332 37.2255L137.831 37.1935ZM137.831 42.4035L137.332 42.3715L137.331 42.3762L137.831 42.4035ZM154.563 57.666V58.166H155.063V57.666H154.563ZM154.563 51.2871L154.076 51.1709L154.063 51.2282V51.2871H154.563ZM149.553 57.666H149.053V58.166H149.553V57.666ZM149.553 51.2871H150.053V51.2269L150.039 51.1684L149.553 51.2871ZM149.186 49.7843L149.671 49.6655L149.671 49.6646L149.186 49.7843ZM144.544 30.9482V30.4482H143.905L144.058 31.0678L144.544 30.9482ZM149.653 30.9482L150.142 30.84L150.055 30.4482H149.653V30.9482ZM151.089 37.4273L151.588 37.3954L151.586 37.3568L151.578 37.3191L151.089 37.4273ZM151.59 45.2756L151.091 45.3075L151.121 45.7756H151.59V45.2756ZM152.526 45.2756V45.7756H152.995L153.025 45.3075L152.526 45.2756ZM153.026 37.4273L152.538 37.3191L152.53 37.3568L152.528 37.3954L153.026 37.4273ZM154.463 30.9482V30.4482H154.061L153.974 30.84L154.463 30.9482ZM159.572 30.9482L160.058 31.068L160.211 30.4482H159.572V30.9482ZM154.93 49.7509L154.445 49.631L154.444 49.6346L154.93 49.7509ZM37.9393 25.8328L37.5914 25.4737C36.6606 26.3754 35.0612 26.8858 32.6626 26.8858V27.3858V27.8858C35.1622 27.8858 37.0806 27.3609 38.2872 26.1919L37.9393 25.8328ZM39.676 20.6729L39.1764 20.6544C39.0893 23.0059 38.5246 24.5697 37.5914 25.4737L37.9393 25.8328L38.2872 26.1919C39.4915 25.0253 40.0846 23.1492 40.1757 20.6914L39.676 20.6729ZM39.8096 13.7096H39.3096C39.3096 16.1639 39.2652 18.4782 39.1764 20.6525L39.676 20.6729L40.1756 20.6933C40.265 18.5038 40.3096 16.1758 40.3096 13.7096H39.8096ZM39.676 6.67946L39.1764 6.69945C39.2652 8.91863 39.3096 11.2553 39.3096 13.7096H39.8096H40.3096C40.3096 11.2433 40.265 8.89327 40.1756 6.65948L39.676 6.67946ZM37.9393 1.55298L37.5914 1.9121C38.5253 2.81681 39.0893 4.37048 39.1764 6.69814L39.676 6.67946L40.1757 6.66078C40.0846 4.22377 39.4908 2.35978 38.2872 1.19385L37.9393 1.55298ZM32.6626 0V0.5C35.0612 0.5 36.6606 1.01037 37.5914 1.9121L37.9393 1.55298L38.2872 1.19385C37.0806 0.0249422 35.1622 -0.5 32.6626 -0.5V0ZM27.3357 1.55298L27.678 1.9174C28.6444 1.00956 30.2659 0.5 32.6626 0.5V0V-0.5C30.161 -0.5 28.2312 0.0257548 26.9934 1.18855L27.3357 1.55298ZM25.6157 6.67946L26.1157 6.68881C26.1591 4.36579 26.7181 2.81914 27.678 1.9174L27.3357 1.55298L26.9934 1.18855C25.7491 2.35744 25.1615 4.22845 25.1158 6.67012L25.6157 6.67946ZM25.5489 13.6762H26.0489C26.0489 11.1966 26.0712 8.8678 26.1156 6.68966L25.6157 6.67946L25.1158 6.66926C25.0712 8.85504 25.0489 11.1907 25.0489 13.6762H25.5489ZM25.5493 14.2059L26.0493 14.2055L26.0489 13.6759L25.5489 13.6762L25.0489 13.6765L25.0493 14.2062L25.5493 14.2059ZM25.6157 20.6729L26.1156 20.6627C26.0744 18.6402 26.0522 16.4877 26.0493 14.2052L25.5493 14.2059L25.0493 14.2065C25.0522 16.4946 25.0744 18.6535 25.1158 20.6831L25.6157 20.6729ZM27.3357 25.8328L27.678 25.4684C26.7189 24.5674 26.1591 23.0106 26.1157 20.6637L25.6157 20.6729L25.1158 20.6822C25.1614 23.1445 25.7483 25.0276 26.9934 26.1972L27.3357 25.8328ZM32.6626 27.3858V26.8858C30.2659 26.8858 28.6444 26.3762 27.678 25.4684L27.3357 25.8328L26.9934 26.1972C28.2312 27.36 30.161 27.8858 32.6626 27.8858V27.3858ZM5.67754 18.8361H5.17754V27.0518H5.67754H6.17754V18.8361H5.67754ZM4.74242 4.74242L4.24352 4.77552L5.17864 18.8692L5.67754 18.8361L6.17645 18.803L5.24132 4.70932L4.74242 4.74242ZM5.61075 4.74242V4.24242H4.74242V4.74242V5.24242H5.61075V4.74242ZM7.04683 19.1701L7.54437 19.1205L6.10829 4.69289L5.61075 4.74242L5.11321 4.79194L6.54929 19.2196L7.04683 19.1701ZM9.08407 27.0518L9.56816 26.9267L7.53092 19.0449L7.04683 19.1701L6.56274 19.2952L8.59998 27.1769L9.08407 27.0518ZM14.461 27.0518V26.5518H9.08407V27.0518V27.5518H14.461V27.0518ZM16.5317 19.1701L16.0481 19.043L13.9774 26.9248L14.461 27.0518L14.9446 27.1789L17.0153 19.2971L16.5317 19.1701ZM17.9344 4.74242L17.4367 4.69404L16.034 19.1217L16.5317 19.1701L17.0293 19.2184L18.432 4.7908L17.9344 4.74242ZM18.8361 4.74242V4.24242H17.9344V4.74242V5.24242H18.8361V4.74242ZM17.8676 18.8361L18.3664 18.8704L19.3349 4.7767L18.8361 4.74242L18.3373 4.70814L17.3687 18.8018L17.8676 18.8361ZM17.8676 27.0518H18.3676V18.8361H17.8676H17.3676V27.0518H17.8676ZM22.8772 27.0518V26.5518H17.8676V27.0518V27.5518H22.8772V27.0518ZM22.8772 0.333973H22.3772V27.0518H22.8772H23.3772V0.333973H22.8772ZM14.8618 0.333973V0.833973H22.8772V0.333973V-0.166027H14.8618V0.333973ZM12.6242 10.4534L13.1124 10.5613L15.35 0.441927L14.8618 0.333973L14.3736 0.22602L12.136 10.3454L12.6242 10.4534ZM12.2234 22.6434L12.7231 22.6598L13.1239 10.4698L12.6242 10.4534L12.1245 10.4369L11.7237 22.6269L12.2234 22.6434ZM11.3551 22.6434V23.1434H12.2234V22.6434V22.1434H11.3551V22.6434ZM10.9209 10.4534L10.4212 10.4712L10.8554 22.6612L11.3551 22.6434L11.8548 22.6256L11.4206 10.4356L10.9209 10.4534ZM8.7167 0.333973L8.22815 0.440389L10.4324 10.5598L10.9209 10.4534L11.4095 10.3469L9.20524 0.227558L8.7167 0.333973ZM0.667946 0.333973V0.833973H8.7167V0.333973V-0.166027H0.667946V0.333973ZM0.667946 27.0518H1.16795V0.333973H0.667946H0.167946V27.0518H0.667946ZM5.67754 27.0518V26.5518H0.667946V27.0518V27.5518H5.67754V27.0518ZM32.6626 23.3113V22.8113C32.0681 22.8113 31.7037 22.6816 31.4888 22.5019C31.2865 22.3328 31.1434 22.0577 31.125 21.5885L30.6253 21.6081L30.1257 21.6277C30.1518 22.2939 30.3705 22.8705 30.8473 23.2691C31.3115 23.6572 31.9434 23.8113 32.6626 23.8113V23.3113ZM34.6664 21.6081L34.1668 21.5885C34.1483 22.0603 34.0063 22.3362 33.8082 22.5045C33.599 22.6824 33.2442 22.8113 32.6626 22.8113V23.3113V23.8113C33.3723 23.8113 33.9972 23.6564 34.4559 23.2665C34.9257 22.8671 35.14 22.2914 35.166 21.6277L34.6664 21.6081ZM34.7833 17.8676L34.2835 17.8553C34.2501 19.2114 34.2112 20.4558 34.1668 21.5885L34.6664 21.6081L35.166 21.6277C35.2107 20.4893 35.2497 19.24 35.2831 17.8799L34.7833 17.8676ZM34.8334 13.6762H34.3334C34.3334 15.1084 34.3167 16.5014 34.2835 17.8553L34.7833 17.8676L35.2831 17.8799C35.3167 16.5174 35.3334 15.1161 35.3334 13.6762H34.8334ZM34.7833 9.48484L34.2835 9.49713C34.3167 10.851 34.3334 12.244 34.3334 13.6762H34.8334H35.3334C35.3334 12.2362 35.3167 10.835 35.2831 9.47254L34.7833 9.48484ZM34.6664 5.74434L34.1668 5.76393C34.2112 6.89659 34.2501 8.14095 34.2835 9.49713L34.7833 9.48484L35.2831 9.47254C35.2497 8.11241 35.2107 6.8631 35.166 5.72475L34.6664 5.74434ZM32.6626 4.07447V4.57447C33.2462 4.57447 33.6025 4.7015 33.812 4.87605C34.0085 5.03986 34.1485 5.30666 34.1668 5.76432L34.6664 5.74434L35.166 5.72435C35.1398 5.06877 34.9235 4.50064 34.4521 4.10783C33.9937 3.72575 33.3704 3.57447 32.6626 3.57447V4.07447ZM30.6253 5.74434L31.1249 5.76432C31.1431 5.30931 31.2842 5.04324 31.485 4.87863C31.7002 4.70224 32.0662 4.57447 32.6626 4.57447V4.07447V3.57447C31.9453 3.57447 31.315 3.72502 30.8511 4.10524C30.3728 4.49726 30.1521 5.06612 30.1257 5.72435L30.6253 5.74434ZM30.5251 9.48484L31.0251 9.49303C31.0473 8.13797 31.0806 6.895 31.125 5.76393L30.6253 5.74434L30.1257 5.72475C30.081 6.8647 30.0475 8.11539 30.0252 9.47664L30.5251 9.48484ZM30.4917 13.6762H30.9917C30.9917 12.2427 31.0029 10.8483 31.0251 9.49303L30.5251 9.48484L30.0252 9.47664C30.0029 10.8377 29.9917 12.2375 29.9917 13.6762H30.4917ZM30.5251 17.8676L31.0251 17.8594C31.0029 16.5041 30.9917 15.1097 30.9917 13.6762H30.4917H29.9917C29.9917 15.1149 30.0029 16.5147 30.0252 17.8758L30.5251 17.8676ZM30.6253 21.6081L31.125 21.5885C31.0806 20.4574 31.0473 19.2144 31.0251 17.8594L30.5251 17.8676L30.0252 17.8758C30.0475 19.237 30.081 20.4877 30.1257 21.6277L30.6253 21.6081ZM54.7048 25.4488L54.3585 25.0881C53.3822 26.0253 51.7251 26.5518 49.261 26.5518V27.0518V27.5518C51.8288 27.5518 53.8009 27.0096 55.0511 25.8094L54.7048 25.4488ZM56.4415 20.172L55.9415 20.1629C55.8981 22.5545 55.3325 24.1531 54.3585 25.0881L54.7048 25.4488L55.0511 25.8094C56.3036 24.607 56.8958 22.6877 56.9414 20.1811L56.4415 20.172ZM56.525 15.7468L56.025 15.7428C56.0139 17.1306 55.9861 18.6022 55.9417 20.1577L56.4415 20.172L56.9413 20.1863C56.9859 18.6247 57.0138 17.1462 57.0249 15.7508L56.525 15.7468ZM56.525 11.5722L56.025 11.5762C56.0361 12.9651 56.0361 14.3539 56.025 15.7428L56.525 15.7468L57.0249 15.7508C57.0361 14.3566 57.0361 12.9624 57.0249 11.5682L56.525 11.5722ZM56.4415 7.18042L55.9417 7.19491C55.9861 8.72805 56.0139 10.1884 56.025 11.5762L56.525 11.5722L57.0249 11.5682C57.0138 10.1728 56.9859 8.70535 56.9412 7.16594L56.4415 7.18042ZM54.7048 1.92035L54.3604 2.28285C55.3322 3.20607 55.898 4.79729 55.9415 7.18951L56.4415 7.18042L56.9414 7.17133C56.8958 4.66528 56.3038 2.74978 55.0492 1.55785L54.7048 1.92035ZM49.261 0.333973V0.833973C51.7262 0.833973 53.3841 1.35535 54.3604 2.28285L54.7048 1.92035L55.0492 1.55785C53.799 0.370176 51.8278 -0.166027 49.261 -0.166027V0.333973ZM42.4814 0.333973V0.833973H49.261V0.333973V-0.166027H42.4814V0.333973ZM42.4814 27.0518H42.9814V0.333973H42.4814H41.9814V27.0518H42.4814ZM49.261 27.0518V26.5518H42.4814V27.0518V27.5518H49.261V27.0518ZM49.261 22.6434V22.1434H47.491V22.6434V23.1434H49.261V22.6434ZM51.4319 20.7731L50.9322 20.7553C50.9133 21.2844 50.7559 21.6019 50.5294 21.797C50.2926 22.001 49.8973 22.1434 49.261 22.1434V22.6434V23.1434C50.0274 23.1434 50.6953 22.9741 51.1821 22.5546C51.6793 22.1263 51.9059 21.5087 51.9315 20.791L51.4319 20.7731ZM51.4319 6.57927L50.9321 6.59342C51.0654 11.3041 51.0654 16.026 50.9321 20.7591L51.4319 20.7731L51.9317 20.7872C52.0655 16.0354 52.0655 11.2947 51.9317 6.56513L51.4319 6.57927ZM49.261 4.74242V5.24242C49.8992 5.24242 50.2959 5.38286 50.5328 5.58332C50.7578 5.77373 50.9135 6.08215 50.9322 6.59744L51.4319 6.57927L51.9315 6.5611C51.9057 5.85182 51.6773 5.24182 51.1787 4.81994C50.692 4.40812 50.0256 4.24242 49.261 4.24242V4.74242ZM47.491 4.74242V5.24242H49.261V4.74242V4.24242H47.491V4.74242ZM47.491 22.6434H47.991V4.74242H47.491H46.991V22.6434H47.491ZM70.7355 22.6434H70.2355V27.0518H70.7355H71.2355V22.6434H70.7355ZM64.1896 22.6434V23.1434H70.7355V22.6434V22.1434H64.1896V22.6434ZM64.1896 15.6633H63.6896V22.6434H64.1896H64.6896V15.6633H64.1896ZM70.4015 15.6633V15.1633H64.1896V15.6633V16.1633H70.4015V15.6633ZM70.4015 11.2549H69.9015V15.6633H70.4015H70.9015V11.2549H70.4015ZM64.1896 11.2549V11.7549H70.4015V11.2549V10.7549H64.1896V11.2549ZM64.1896 4.74242H63.6896V11.2549H64.1896H64.6896V4.74242H64.1896ZM70.7355 4.74242V4.24242H64.1896V4.74242V5.24242H70.7355V4.74242ZM70.7355 0.333973H70.2355V4.74242H70.7355H71.2355V0.333973H70.7355ZM59.18 0.333973V0.833973H70.7355V0.333973V-0.166027H59.18V0.333973ZM59.18 27.0518H59.68V0.333973H59.18H58.68V27.0518H59.18ZM70.7355 27.0518V26.5518H59.18V27.0518V27.5518H70.7355V27.0518ZM77.7489 27.0518H78.2489V18.0345H77.7489H77.2489V27.0518H77.7489ZM72.7393 27.0518V27.5518H77.7489V27.0518V26.5518H72.7393V27.0518ZM72.7393 0.333973H72.2393V27.0518H72.7393H73.2393V0.333973H72.7393ZM79.185 0.333973V-0.166027H72.7393V0.333973V0.833973H79.185V0.333973ZM84.5787 1.85355L84.9171 1.48544C83.678 0.346498 81.7261 -0.166027 79.185 -0.166027V0.333973V0.833973C81.6313 0.833973 83.2752 1.3345 84.2403 2.22166L84.5787 1.85355ZM86.3655 6.84645L86.8651 6.82723C86.7736 4.44981 86.1596 2.62756 84.9171 1.48544L84.5787 1.85355L84.2403 2.22166C85.202 3.10564 85.7791 4.612 85.8658 6.86567L86.3655 6.84645ZM86.4156 8.48292L86.9154 8.47102C86.9042 8.00095 86.8875 7.45339 86.8651 6.82861L86.3655 6.84645L85.8658 6.86429C85.888 7.48634 85.9046 8.02977 85.9157 8.49482L86.4156 8.48292ZM86.4156 9.8856L86.9154 9.8975C86.9267 9.42201 86.9267 8.94651 86.9154 8.47102L86.4156 8.48292L85.9157 8.49482C85.9266 8.95445 85.9266 9.41407 85.9157 9.8737L86.4156 9.8856ZM86.3655 11.5221L86.8651 11.5399C86.8875 10.9151 86.9042 10.3676 86.9154 9.8975L86.4156 9.8856L85.9157 9.8737C85.9046 10.3388 85.888 10.8822 85.8658 11.5042L86.3655 11.5221ZM85.6307 15.0789L86.0811 15.296C86.5666 14.2886 86.8194 13.0278 86.8652 11.5375L86.3655 11.5221L85.8657 11.5067C85.8225 12.9107 85.5854 14.0212 85.1803 14.8618L85.6307 15.0789ZM83.5935 17.1996L83.8299 17.6402C84.8349 17.1009 85.5894 16.3162 86.0811 15.296L85.6307 15.0789L85.1803 14.8618C84.7814 15.6895 84.1777 16.3187 83.3571 16.759L83.5935 17.1996ZM86.7328 27.0518L87.2092 26.9L84.0699 17.0478L83.5935 17.1996L83.1171 17.3514L86.2564 27.2036L86.7328 27.0518ZM81.4227 27.0518V27.5518H86.7328V27.0518V26.5518H81.4227V27.0518ZM78.8845 18.0345L78.4032 18.17L80.9414 27.1873L81.4227 27.0518L81.9039 26.9163L79.3657 17.8991L78.8845 18.0345ZM77.7489 18.0345V18.5345H78.8845V18.0345V17.5345H77.7489V18.0345ZM77.7489 13.6261V14.1261H79.185V13.6261V13.1261H77.7489V13.6261ZM77.7489 4.74242H77.2489V13.6261H77.7489H78.2489V4.74242H77.7489ZM79.185 4.74242V4.24242H77.7489V4.74242V5.24242H79.185V4.74242ZM81.3559 6.57927L81.8551 6.55204C81.8165 5.8449 81.5815 5.23915 81.086 4.81994C80.6006 4.40916 79.9408 4.24242 79.185 4.24242V4.74242V5.24242C79.8097 5.24242 80.2019 5.38182 80.4401 5.58332C80.6683 5.7764 80.8284 6.08907 80.8566 6.6065L81.3559 6.57927ZM81.3559 11.7893L81.8548 11.8212C81.9675 10.0633 81.9675 8.30525 81.8548 6.54729L81.3559 6.57927L80.8569 6.61125C80.9668 8.32661 80.9668 10.0419 80.8569 11.7573L81.3559 11.7893ZM79.185 13.6261V14.1261C79.9408 14.1261 80.6006 13.9594 81.086 13.5486C81.5815 13.1294 81.8165 12.5236 81.8551 11.8165L81.3559 11.7893L80.8566 11.762C80.8284 12.2795 80.6683 12.5921 80.4401 12.7852C80.2019 12.9867 79.8097 13.1261 79.185 13.1261V13.6261ZM93.5793 27.0518L94.0788 27.0307L93.6447 16.7777L93.1451 16.7988L92.6456 16.82L93.0797 27.073L93.5793 27.0518ZM88.7367 27.0518V27.5518H93.5793V27.0518V26.5518H88.7367V27.0518ZM88.7367 0.333973H88.2367V27.0518H88.7367H89.2367V0.333973H88.7367ZM95.9839 0.333973V-0.166027H88.7367V0.333973V0.833973H95.9839V0.333973ZM97.9877 8.85029L98.4744 8.73577L96.4706 0.219454L95.9839 0.333973L95.4972 0.448493L97.501 8.96481L97.9877 8.85029ZM99.8246 22.6434L100.32 22.5774L98.4833 8.78428L97.9877 8.85029L97.4921 8.91629L99.3289 22.7094L99.8246 22.6434ZM100.693 22.6434V22.1434H99.8246V22.6434V23.1434H100.693V22.6434ZM99.7578 11.7893L99.2596 11.8322L100.195 22.6863L100.693 22.6434L101.191 22.6005L100.256 11.7463L99.7578 11.7893ZM99.357 0.333973L98.8573 0.351455L99.2581 11.8067L99.7578 11.7893L100.257 11.7718L99.8567 0.316491L99.357 0.333973ZM104.2 0.333973V-0.166027H99.357V0.333973V0.833973H104.2V0.333973ZM104.2 27.0518H104.7V0.333973H104.2H103.7V27.0518H104.2ZM96.585 27.0518V27.5518H104.2V27.0518V26.5518H96.585V27.0518ZM94.5812 18.3017L94.0938 18.4133L96.0976 27.1634L96.585 27.0518L97.0724 26.9402L95.0686 18.1901L94.5812 18.3017ZM93.2119 4.70902L92.7144 4.75914L94.0837 18.3518L94.5812 18.3017L95.0787 18.2516L93.7094 4.65891L93.2119 4.70902ZM92.2768 4.70902V5.20902H93.2119V4.70902V4.20902H92.2768V4.70902ZM93.1451 16.7988L93.6438 16.763L92.7755 4.6732L92.2768 4.70902L91.7781 4.74484L92.6464 16.8347L93.1451 16.7988ZM5.71094 52.0887L5.21351 52.038L4.64576 57.6154L5.14319 57.666L5.64062 57.7167L6.20837 52.1393L5.71094 52.0887ZM9.58503 52.0887V51.5887H5.71094V52.0887V52.5887H9.58503V52.0887ZM10.1528 57.666L10.6502 57.6154L10.0825 52.038L9.58503 52.0887L9.0876 52.1393L9.65535 57.7167L10.1528 57.666ZM15.296 57.666V57.166H10.1528V57.666V58.166H15.296V57.666ZM11.5889 30.9482L11.0936 31.0169L14.8007 57.7347L15.296 57.666L15.7912 57.5973L12.0841 30.8795L11.5889 30.9482ZM3.7071 30.9482V31.4482H11.5889V30.9482V30.4482H3.7071V30.9482ZM0 57.666L0.495256 57.7347L4.20236 31.0169L3.7071 30.9482L3.21185 30.8795L-0.495256 57.5973L0 57.666ZM5.14319 57.666V57.166H0V57.666V58.166H5.14319V57.666ZM9.11747 47.6802V47.1802H6.1785V47.6802V48.1802H9.11747V47.6802ZM8.51632 41.7689L8.01888 41.8195L8.62003 47.7308L9.11747 47.6802L9.6149 47.6296L9.01375 41.7183L8.51632 41.7689ZM8.11555 35.3566L7.61652 35.3878L8.01729 41.8001L8.51632 41.7689L9.01534 41.7377L8.61457 35.3254L8.11555 35.3566ZM7.18042 35.3566V35.8566H8.11555V35.3566V34.8566H7.18042V35.3566ZM6.77965 41.7689L7.27868 41.8001L7.67945 35.3878L7.18042 35.3566L6.6814 35.3254L6.28063 41.7377L6.77965 41.7689ZM6.1785 47.6802L6.67594 47.7308L7.27709 41.8195L6.77965 41.7689L6.28222 41.7183L5.68107 47.6296L6.1785 47.6802ZM22.3094 48.6488H21.8094V57.666H22.3094H22.8094V48.6488H22.3094ZM23.4449 48.6488V48.1488H22.3094V48.6488V49.1488H23.4449V48.6488ZM25.9831 57.666L26.4644 57.5306L23.9262 48.5133L23.4449 48.6488L22.9636 48.7842L25.5018 57.8015L25.9831 57.666ZM31.2933 57.666V57.166H25.9831V57.666V58.166H31.2933V57.666ZM28.1539 47.8138L27.6775 47.9656L30.8169 57.8178L31.2933 57.666L31.7697 57.5142L28.6303 47.662L28.1539 47.8138ZM30.1912 45.6931L29.7407 45.476C29.3419 46.3037 28.7382 46.9329 27.9175 47.3732L28.1539 47.8138L28.3903 48.2544C29.3954 47.7151 30.1499 46.9304 30.6416 45.9102L30.1912 45.6931ZM30.9259 42.1363L30.4261 42.1209C30.3829 43.5249 30.1459 44.6354 29.7407 45.476L30.1912 45.6931L30.6416 45.9102C31.1271 44.9028 31.3798 43.642 31.4257 42.1517L30.9259 42.1363ZM30.976 40.4998L30.4762 40.4879C30.4651 40.953 30.4484 41.4964 30.4262 42.1184L30.9259 42.1363L31.4256 42.1541C31.4479 41.5293 31.4647 40.9818 31.4759 40.5117L30.976 40.4998ZM30.976 39.0971L30.4762 39.109C30.4871 39.5686 30.4871 40.0283 30.4762 40.4879L30.976 40.4998L31.4759 40.5117C31.4872 40.0362 31.4872 39.5607 31.4759 39.0852L30.976 39.0971ZM30.9259 37.4607L30.4262 37.4785C30.4484 38.1005 30.4651 38.644 30.4762 39.109L30.976 39.0971L31.4759 39.0852C31.4647 38.6151 31.4479 38.0676 31.4256 37.4428L30.9259 37.4607ZM29.1392 32.4678L28.8008 32.8359C29.7625 33.7198 30.3396 35.2262 30.4263 37.4799L30.9259 37.4607L31.4255 37.4414C31.3341 35.064 30.7201 33.2418 29.4775 32.0996L29.1392 32.4678ZM23.7455 30.9482V31.4482C26.1918 31.4482 27.8356 31.9487 28.8008 32.8359L29.1392 32.4678L29.4775 32.0996C28.2385 30.9607 26.2865 30.4482 23.7455 30.4482V30.9482ZM17.2998 30.9482V31.4482H23.7455V30.9482V30.4482H17.2998V30.9482ZM17.2998 57.666H17.7998V30.9482H17.2998H16.7998V57.666H17.2998ZM22.3094 57.666V57.166H17.2998V57.666V58.166H22.3094V57.666ZM23.7455 44.2403V43.7403H22.3094V44.2403V44.7403H23.7455V44.2403ZM25.9163 42.4035L25.4171 42.3762C25.3888 42.8937 25.2287 43.2063 25.0005 43.3994C24.7624 43.6009 24.3701 43.7403 23.7455 43.7403V44.2403V44.7403C24.5013 44.7403 25.161 44.5736 25.6465 44.1628C26.1419 43.7436 26.377 43.1378 26.4156 42.4307L25.9163 42.4035ZM25.9163 37.1935L25.4173 37.2255C25.5273 38.9408 25.5273 40.6561 25.4173 42.3715L25.9163 42.4035L26.4153 42.4354C26.528 40.6775 26.528 38.9194 26.4153 37.1615L25.9163 37.1935ZM23.7455 35.3566V35.8566C24.3701 35.8566 24.7624 35.996 25.0005 36.1975C25.2287 36.3906 25.3888 36.7033 25.4171 37.2207L25.9163 37.1935L26.4156 37.1662C26.377 36.4591 26.1419 35.8534 25.6465 35.4341C25.161 35.0234 24.5013 34.8566 23.7455 34.8566V35.3566ZM22.3094 35.3566V35.8566H23.7455V35.3566V34.8566H22.3094V35.3566ZM22.3094 44.2403H22.8094V35.3566H22.3094H21.8094V44.2403H22.3094ZM41.947 35.3566H41.447V57.666H41.947H42.447V35.3566H41.947ZM46.2219 35.3566V34.8566H41.947V35.3566V35.8566H46.2219V35.3566ZM46.2219 30.9482H45.7219V35.3566H46.2219H46.7219V30.9482H46.2219ZM32.6292 30.9482V31.4482H46.2219V30.9482V30.4482H32.6292V30.9482ZM32.6292 35.3566H33.1292V30.9482H32.6292H32.1292V35.3566H32.6292ZM36.9374 35.3566V34.8566H32.6292V35.3566V35.8566H36.9374V35.3566ZM36.9374 57.666H37.4374V35.3566H36.9374H36.4374V57.666H36.9374ZM41.947 57.666V57.166H36.9374V57.666V58.166H41.947V57.666ZM62.7202 58V58.5C65.1588 58.5 67.049 57.9726 68.2743 56.8097L67.9301 56.447L67.5859 56.0843C66.6294 56.9921 65.0461 57.5 62.7202 57.5V58ZM58.6958 57.3154L58.4904 57.7712C59.5921 58.2676 61.0118 58.5 62.7202 58.5V58V57.5C61.0887 57.5 59.8255 57.276 58.9012 56.8595L58.6958 57.3154ZM56.4749 55.1612L56.0236 55.3766C56.5434 56.4657 57.3723 57.2675 58.4904 57.7712L58.6958 57.3154L58.9012 56.8595C57.9931 56.4504 57.3414 55.8161 56.9261 54.9459L56.4749 55.1612ZM55.6733 51.2871L55.1738 51.308C55.2421 52.9491 55.5165 54.3141 56.0236 55.3766L56.4749 55.1612L56.9261 54.9459C56.4981 54.049 56.2381 52.8314 56.1729 51.2663L55.6733 51.2871ZM55.6065 48.0977L55.1066 48.107C55.1289 49.2988 55.1512 50.3629 55.1735 51.299L55.6733 51.2871L56.1732 51.2752C56.1509 50.3412 56.1287 49.2789 56.1064 48.0884L55.6065 48.0977ZM55.5731 44.3906H55.0731C55.0731 45.6737 55.0843 46.9125 55.1066 48.107L55.6065 48.0977L56.1064 48.0884C56.0842 46.9005 56.0731 45.6679 56.0731 44.3906H55.5731ZM55.6065 40.7002L55.1066 40.6908C55.0843 41.8742 55.0731 43.1075 55.0731 44.3906H55.5731H56.0731C56.0731 43.1133 56.0842 41.8863 56.1064 40.7096L55.6065 40.7002ZM55.6733 37.5942L55.1735 37.5817C55.1512 38.4736 55.1289 39.51 55.1066 40.6908L55.6065 40.7002L56.1064 40.7096C56.1287 39.5303 56.1509 38.496 56.1732 37.6067L55.6733 37.5942ZM56.4916 33.5198L56.0386 33.3081C55.5213 34.4148 55.2419 35.8459 55.1737 37.5745L55.6733 37.5942L56.1729 37.614C56.2383 35.9583 56.5044 34.6731 56.9445 33.7315L56.4916 33.5198ZM58.7292 31.2988L58.5238 30.843C57.3996 31.3495 56.567 32.1776 56.0386 33.3081L56.4916 33.5198L56.9445 33.7315C57.3735 32.8136 58.0327 32.1611 58.9346 31.7547L58.7292 31.2988ZM62.7202 30.6142V30.1142C61.033 30.1142 59.6248 30.3469 58.5238 30.843L58.7292 31.2988L58.9346 31.7547C59.8596 31.3379 61.1121 31.1142 62.7202 31.1142V30.6142ZM67.8299 32.1672L68.1778 31.8081C66.9747 30.6425 65.1162 30.1142 62.7202 30.1142V30.6142V31.1142C64.9997 31.1142 66.5478 31.6212 67.482 32.5263L67.8299 32.1672ZM69.6668 37.2937L70.1657 37.261C70.0064 34.8258 69.3761 32.9689 68.1778 31.8081L67.8299 32.1672L67.482 32.5263C68.4212 33.4361 69.0155 34.9969 69.1679 37.3263L69.6668 37.2937ZM69.7336 39.1305H70.2336C70.2336 38.4086 70.2111 37.7811 70.1649 37.2504L69.6668 37.2937L69.1687 37.337C69.2116 37.8304 69.2336 38.4274 69.2336 39.1305H69.7336ZM69.6668 40.9674L70.1649 41.0107C70.2111 40.4799 70.2336 39.8524 70.2336 39.1305H69.7336H69.2336C69.2336 39.8336 69.2116 40.4307 69.1687 40.924L69.6668 40.9674ZM64.6572 40.9674V41.4674H69.6668V40.9674V40.4674H64.6572V40.9674ZM64.724 38.663H64.224C64.224 39.5688 64.2019 40.3242 64.1585 40.9317L64.6572 40.9674L65.1559 41.003C65.2016 40.3637 65.224 39.5828 65.224 38.663H64.724ZM64.6572 36.3585L64.1585 36.3942C64.2019 37.0017 64.224 37.7571 64.224 38.663H64.724H65.224C65.224 37.7431 65.2016 36.9622 65.1559 36.3229L64.6572 36.3585ZM62.7202 34.6887V35.1887C63.264 35.1887 63.5969 35.3129 63.7964 35.4848C63.9881 35.6502 64.1302 35.9233 64.1581 36.3885L64.6572 36.3585L65.1563 36.3286C65.1174 35.6806 64.9032 35.1188 64.4493 34.7274C64.0031 34.3428 63.4008 34.1887 62.7202 34.1887V34.6887ZM60.6829 36.3585L61.182 36.3885C61.2095 35.931 61.355 35.6603 61.5593 35.4928C61.7758 35.3154 62.1374 35.1887 62.7202 35.1887V34.6887V34.1887C62.0116 34.1887 61.3879 34.3403 60.9254 34.7194C60.4506 35.1086 60.2232 35.6728 60.1838 36.3286L60.6829 36.3585ZM60.4992 41.5017L60.9991 41.5107C61.0325 39.6457 61.0935 37.938 61.1821 36.3871L60.6829 36.3585L60.1837 36.33C60.0942 37.8962 60.0328 39.6172 59.9993 41.4928L60.4992 41.5017ZM60.4992 47.0958L60.9991 47.0868C60.9659 45.2337 60.9659 43.375 60.9991 41.5107L60.4992 41.5017L59.9993 41.4928C59.9658 43.369 59.9658 45.2396 59.9993 47.1048L60.4992 47.0958ZM60.6829 52.2223L61.1821 52.1937C61.0935 50.6428 61.0325 48.9406 60.9991 47.0868L60.4992 47.0958L59.9993 47.1048C60.0328 48.9692 60.0942 50.6847 60.1837 52.2508L60.6829 52.2223ZM62.7202 53.9255V53.4255C62.1393 53.4255 61.7793 53.2969 61.563 53.1161C61.3574 52.9442 61.2098 52.6645 61.1821 52.1929L60.6829 52.2223L60.1838 52.2516C60.2228 52.9156 60.4482 53.4875 60.9216 53.8833C61.3844 54.2703 62.0096 54.4255 62.7202 54.4255V53.9255ZM64.2564 53.4914L63.9527 53.0942C63.6878 53.2968 63.2946 53.4255 62.7202 53.4255V53.9255V54.4255C63.437 54.4255 64.0681 54.2648 64.5602 53.8885L64.2564 53.4914ZM64.891 52.2223L64.3926 52.1824C64.3572 52.6243 64.199 52.9059 63.9527 53.0942L64.2564 53.4914L64.5602 53.8885C65.0709 53.498 65.3357 52.9334 65.3894 52.2621L64.891 52.2223ZM64.9411 51.2036L64.4413 51.1901C64.4303 51.5971 64.4139 51.9264 64.3927 52.1807L64.891 52.2223L65.3893 52.2638C65.4126 51.9838 65.4296 51.634 65.4409 51.2172L64.9411 51.2036ZM64.9411 49.9512L64.4412 49.9644C64.4522 50.3788 64.4521 50.7874 64.4413 51.1901L64.9411 51.2036L65.4409 51.2172C65.4523 50.7961 65.4523 50.3698 65.4409 49.9381L64.9411 49.9512ZM64.891 48.9493L64.393 48.9946C64.4139 49.2239 64.4302 49.5456 64.4412 49.9644L64.9411 49.9512L65.4409 49.9381C65.4297 49.5108 65.4126 49.1646 65.3889 48.9041L64.891 48.9493ZM63.0541 48.9493V49.4493H64.891V48.9493V48.4493H63.0541V48.9493ZM63.0541 44.6077H62.5541V48.9493H63.0541H63.5541V44.6077H63.0541ZM69.767 44.6077V44.1077H63.0541V44.6077V45.1077H69.767V44.6077ZM69.8171 47.9474L70.3171 47.952C70.3283 46.7424 70.3115 45.6203 70.2665 44.586L69.767 44.6077L69.2675 44.6294C69.3115 45.6435 69.3282 46.7478 69.3171 47.9428L69.8171 47.9474ZM69.7336 51.2871L70.2331 51.3089C70.2779 50.2781 70.3059 49.1591 70.3171 47.952L69.8171 47.9474L69.3171 47.9428C69.306 49.1403 69.2783 50.2478 69.2341 51.2654L69.7336 51.2871ZM67.9301 56.447L68.2743 56.8097C69.5016 55.645 70.1192 53.7698 70.2331 51.3103L69.7336 51.2871L69.2341 51.264C69.1253 53.6137 68.5406 55.1784 67.586 56.0843L67.9301 56.447ZM76.8806 52.0887L76.3832 52.038L75.8154 57.6154L76.3129 57.666L76.8103 57.7167L77.378 52.1393L76.8806 52.0887ZM80.7547 52.0887V51.5887H76.8806V52.0887V52.5887H80.7547V52.0887ZM81.3225 57.666L81.8199 57.6154L81.2521 52.038L80.7547 52.0887L80.2573 52.1393L80.825 57.7167L81.3225 57.666ZM86.4656 57.666V57.166H81.3225V57.666V58.166H86.4656V57.666ZM82.7585 30.9482L82.2633 31.0169L85.9704 57.7347L86.4656 57.666L86.9609 57.5973L83.2538 30.8795L82.7585 30.9482ZM74.8768 30.9482V31.4482H82.7585V30.9482V30.4482H74.8768V30.9482ZM71.1697 57.666L71.6649 57.7347L75.372 31.0169L74.8768 30.9482L74.3815 30.8795L70.6744 57.5973L71.1697 57.666ZM76.3129 57.666V57.166H71.1697V57.666V58.166H76.3129V57.666ZM80.2871 47.6802V47.1802H77.3482V47.6802V48.1802H80.2871V47.6802ZM79.686 41.7689L79.1886 41.8195L79.7897 47.7308L80.2871 47.6802L80.7846 47.6296L80.1834 41.7183L79.686 41.7689ZM79.2852 35.3566L78.7862 35.3878L79.187 41.8001L79.686 41.7689L80.185 41.7377L79.7842 35.3254L79.2852 35.3566ZM78.3501 35.3566V35.8566H79.2852V35.3566V34.8566H78.3501V35.3566ZM77.9493 41.7689L78.4483 41.8001L78.8491 35.3878L78.3501 35.3566L77.8511 35.3254L77.4503 41.7377L77.9493 41.7689ZM77.3482 47.6802L77.8456 47.7308L78.4468 41.8195L77.9493 41.7689L77.4519 41.7183L76.8507 47.6296L77.3482 47.6802ZM100.058 53.2576H99.5583V57.666H100.058H100.558V53.2576H100.058ZM93.4791 53.2576V53.7576H100.058V53.2576V52.7576H93.4791V53.2576ZM93.4791 30.9482H92.9791V53.2576H93.4791H93.9791V30.9482H93.4791ZM88.4695 30.9482V31.4482H93.4791V30.9482V30.4482H88.4695V30.9482ZM88.4695 57.666H88.9695V30.9482H88.4695H87.9695V57.666H88.4695ZM100.058 57.666V57.166H88.4695V57.666V58.166H100.058V57.666ZM113.651 57.666H114.151V53.2576H113.651H113.151V57.666H113.651ZM102.062 57.666V58.166H113.651V57.666V57.166H102.062V57.666ZM102.062 30.9482H101.562V57.666H102.062H102.562V30.9482H102.062ZM107.072 30.9482V30.4482H102.062V30.9482V31.4482H107.072V30.9482ZM107.072 53.2576H107.572V30.9482H107.072H106.572V53.2576H107.072ZM113.651 53.2576V52.7576H107.072V53.2576V53.7576H113.651V53.2576ZM127.21 53.2576H126.71V57.666H127.21H127.71V53.2576H127.21ZM120.664 53.2576V53.7576H127.21V53.2576V52.7576H120.664V53.2576ZM120.664 46.2775H120.164V53.2576H120.664H121.164V46.2775H120.664ZM126.876 46.2775V45.7775H120.664V46.2775V46.7775H126.876V46.2775ZM126.876 41.8691H126.376V46.2775H126.876H127.376V41.8691H126.876ZM120.664 41.8691V42.3691H126.876V41.8691V41.3691H120.664V41.8691ZM120.664 35.3566H120.164V41.8691H120.664H121.164V35.3566H120.664ZM127.21 35.3566V34.8566H120.664V35.3566V35.8566H127.21V35.3566ZM127.21 30.9482H126.71V35.3566H127.21H127.71V30.9482H127.21ZM115.655 30.9482V31.4482H127.21V30.9482V30.4482H115.655V30.9482ZM115.655 57.666H116.155V30.9482H115.655H115.155V57.666H115.655ZM127.21 57.666V57.166H115.655V57.666V58.166H127.21V57.666ZM134.224 57.666H134.724V48.6488H134.224H133.724V57.666H134.224ZM129.214 57.666V58.166H134.224V57.666V57.166H129.214V57.666ZM129.214 30.9482H128.714V57.666H129.214H129.714V30.9482H129.214ZM135.66 30.9482V30.4482H129.214V30.9482V31.4482H135.66V30.9482ZM141.054 32.4678L141.392 32.0996C140.153 30.9607 138.201 30.4482 135.66 30.4482V30.9482V31.4482C138.106 31.4482 139.75 31.9487 140.715 32.8359L141.054 32.4678ZM142.84 37.4607L143.34 37.4414C143.249 35.064 142.634 33.2418 141.392 32.0996L141.054 32.4678L140.715 32.8359C141.677 33.7198 142.254 35.2262 142.341 37.4799L142.84 37.4607ZM142.89 39.0971L143.39 39.0852C143.379 38.6151 143.362 38.0676 143.34 37.4428L142.84 37.4607L142.341 37.4785C142.363 38.1005 142.379 38.644 142.391 39.109L142.89 39.0971ZM142.89 40.4998L143.39 40.5117C143.402 40.0362 143.402 39.5607 143.39 39.0852L142.89 39.0971L142.391 39.109C142.401 39.5687 142.401 40.0283 142.391 40.4879L142.89 40.4998ZM142.84 42.1363L143.34 42.1541C143.362 41.5293 143.379 40.9818 143.39 40.5117L142.89 40.4998L142.391 40.4879C142.379 40.953 142.363 41.4964 142.341 42.1184L142.84 42.1363ZM142.106 45.6931L142.556 45.9102C143.041 44.9028 143.294 43.642 143.34 42.1517L142.84 42.1363L142.341 42.1209C142.297 43.5249 142.06 44.6354 141.655 45.476L142.106 45.6931ZM140.068 47.8138L140.305 48.2544C141.31 47.7151 142.064 46.9304 142.556 45.9102L142.106 45.6931L141.655 45.476C141.256 46.3037 140.653 46.9329 139.832 47.3732L140.068 47.8138ZM143.208 57.666L143.684 57.5142L140.545 47.662L140.068 47.8138L139.592 47.9656L142.731 57.8178L143.208 57.666ZM137.898 57.666V58.166H143.208V57.666V57.166H137.898V57.666ZM135.359 48.6488L134.878 48.7842L137.416 57.8015L137.898 57.666L138.379 57.5306L135.841 48.5133L135.359 48.6488ZM134.224 48.6488V49.1488H135.359V48.6488V48.1488H134.224V48.6488ZM134.224 44.2403V44.7403H135.66V44.2403V43.7403H134.224V44.2403ZM134.224 35.3566H133.724V44.2403H134.224H134.724V35.3566H134.224ZM135.66 35.3566V34.8566H134.224V35.3566V35.8566H135.66V35.3566ZM137.831 37.1935L138.33 37.1662C138.291 36.4591 138.056 35.8534 137.561 35.4341C137.075 35.0234 136.416 34.8566 135.66 34.8566V35.3566V35.8566C136.285 35.8566 136.677 35.996 136.915 36.1975C137.143 36.3906 137.303 36.7033 137.331 37.2207L137.831 37.1935ZM137.831 42.4035L138.33 42.4354C138.442 40.6775 138.442 38.9194 138.33 37.1615L137.831 37.1935L137.332 37.2255C137.442 38.9408 137.442 40.6561 137.332 42.3715L137.831 42.4035ZM135.66 44.2403V44.7403C136.416 44.7403 137.075 44.5736 137.561 44.1628C138.056 43.7436 138.291 43.1378 138.33 42.4307L137.831 42.4035L137.331 42.3762C137.303 42.8937 137.143 43.2063 136.915 43.3994C136.677 43.6009 136.285 43.7403 135.66 43.7403V44.2403ZM154.563 57.666H155.063V51.2871H154.563H154.063V57.666H154.563ZM149.553 57.666V58.166H154.563V57.666V57.166H149.553V57.666ZM149.553 51.2871H149.053V57.666H149.553H150.053V51.2871H149.553ZM149.186 49.7843L148.7 49.903L149.067 51.4059L149.553 51.2871L150.039 51.1684L149.671 49.6655L149.186 49.7843ZM144.544 30.9482L144.058 31.0678L148.7 49.9039L149.186 49.7843L149.671 49.6646L145.029 30.8285L144.544 30.9482ZM149.653 30.9482V30.4482H144.544V30.9482V31.4482H149.653V30.9482ZM151.089 37.4273L151.578 37.3191L150.142 30.84L149.653 30.9482L149.165 31.0564L150.601 37.5355L151.089 37.4273ZM151.59 45.2756L152.089 45.2438L151.588 37.3954L151.089 37.4273L150.59 37.4591L151.091 45.3075L151.59 45.2756ZM152.526 45.2756V44.7756H151.59V45.2756V45.7756H152.526V45.2756ZM153.026 37.4273L152.528 37.3954L152.027 45.2438L152.526 45.2756L153.025 45.3075L153.525 37.4591L153.026 37.4273ZM154.463 30.9482L153.974 30.84L152.538 37.3191L153.026 37.4273L153.515 37.5355L154.951 31.0564L154.463 30.9482ZM159.572 30.9482V30.4482H154.463V30.9482V31.4482H159.572V30.9482ZM154.93 49.7509L155.416 49.8707L160.058 31.068L159.572 30.9482L159.087 30.8283L154.445 49.631L154.93 49.7509ZM154.563 51.2871L155.049 51.4034L155.416 49.8671L154.93 49.7509L154.444 49.6346L154.076 51.1709L154.563 51.2871Z" fill="#F5F5F5"/>
</svg>
